<!--?xml version="1.0" standalone="no"?-->

<svg xmlns="http://www.w3.org/2000/svg" width="267.000000pt" height="300.000000pt" viewBox="0 0 267.000000 300.000000" preserveAspectRatio="xMidYMid meet">
<g transform="translate(0.000000,300.000000) scale(0.100000,-0.100000)" fill="#151515" stroke="none">
<path d="M1870 2898 c-33 -111 -64 -161 -124 -199 -213 -136 -245 -160 -294
-217 -84 -97 -91 -119 -213 -670 -21 -99 -23 -103 -46 -97 -20 5 -23 2 -23
-25 l0 -30 115 0 115 0 0 78 c0 42 9 145 21 227 11 83 23 173 26 200 7 60 57
130 165 233 48 46 103 117 175 226 57 87 107 165 110 172 11 29 29 11 79 -74
28 -48 84 -143 124 -212 41 -69 96 -164 124 -212 173 -297 240 -408 243 -404
3 2 -2 15 -10 28 -13 20 -89 161 -220 408 -22 41 -77 145 -122 230 -45 85
-106 200 -136 255 -29 55 -60 113 -70 128 l-17 28 -22 -73z" id="node1" class="node" style="position: relative; display: none;"></path>
<path d="M243 1633 c-84 -36 -153 -69 -153 -72 0 -4 30 -19 68 -35 269 -115
260 -113 192 -40 l-55 59 854 3 854 2 78 -45 c107 -62 175 -63 88 -1 -50 35
-43 48 8 14 76 -50 93 -58 120 -58 27 1 27 2 -22 46 -53 48 -37 44 52 -13 47
-30 104 -44 103 -25 -1 4 -23 24 -50 45 -28 21 -50 42 -50 47 0 4 25 28 56 54
l56 46 -34 0 c-21 0 -50 -10 -72 -25 -90 -61 -127 -65 -44 -4 l41 29 -34 0
c-23 0 -54 -12 -89 -35 -69 -45 -87 -44 -35 0 l40 35 -32 0 c-22 0 -57 -15
-103 -44 l-71 -44 -847 0 c-466 0 -851 2 -855 5 -5 3 17 32 49 64 32 33 54 59
49 58 -6 0 -79 -30 -162 -66z" id="node2" class="node" style="position: relative; fill: rgb(21, 21, 21); stroke: none;" transform="scale(1) translate(-665,415) rotate(-45 1162.6416473388672 338.3416748046875)"></path>
<path d="M1187 1472 c-21 -2 -27 -8 -23 -19 3 -8 6 -21 6 -29 0 -10 7 -13 24
-8 27 6 26 10 91 -296 90 -423 114 -464 362 -622 79 -49 153 -104 165 -121 12
-17 36 -73 52 -124 l31 -93 35 68 c19 37 51 96 71 132 20 36 61 112 91 170 31
58 71 134 90 170 20 36 79 148 133 250 53 102 111 210 127 240 65 119 -4 15
-97 -145 -112 -195 -209 -360 -285 -490 -29 -49 -72 -123 -94 -162 -23 -40
-44 -73 -47 -73 -3 0 -53 71 -110 157 -66 101 -134 190 -189 248 -165 173
-161 165 -188 349 -12 89 -26 215 -30 281 l-7 119 -90 1 c-49 1 -103 -1 -118
-3z" id="node3" class="node" style="position: relative; display: none;" transform="scale(1) translate(0,0) rotate(-10 447.52836791992183,229.2416534423828)"></path>
</g>
<g transform="translate(0.000000,300.000000) scale(0.100000,-0.100000)" fill="#A5A5A5" stroke="none">

</g>
</svg>